<?xml version="1.0" encoding="UTF-8" standalone="no"?>
<!DOCTYPE svg PUBLIC "-//W3C//DTD SVG 1.1//EN"
 "http://www.w3.org/Graphics/SVG/1.1/DTD/svg11.dtd">
<!-- Generated by graphviz version 2.43.0 (0)
 -->
<!-- Title: 23_patient_ward_status Pages: 1 -->
<svg width="496pt" height="907pt"
 viewBox="0.00 0.00 495.69 906.50" xmlns="http://www.w3.org/2000/svg" xmlns:xlink="http://www.w3.org/1999/xlink">
<g id="graph0" class="graph" transform="scale(1 1) rotate(0) translate(4 902.5)">
<title>23_patient_ward_status</title>
<polygon fill="white" stroke="transparent" points="-4,4 -4,-902.5 491.69,-902.5 491.69,4 -4,4"/>
<text text-anchor="middle" x="243.84" y="-854.5" font-family="Arial" font-size="20.00" fill="#1b3a4b">23. Patient Ward Status Flowchart</text>
<!-- s -->
<g id="node1" class="node">
<title>s</title>
<ellipse fill="#d5ecd7" stroke="#5b9c62" stroke-width="1.4" cx="252" cy="-826.5" rx="32.4" ry="18"/>
<text text-anchor="middle" x="252" y="-823.7" font-family="Arial" font-size="11.00" fill="#12283a">Start</text>
</g>
<!-- open -->
<g id="node2" class="node">
<title>open</title>
<path fill="#cfe2f3" stroke="#5b8db8" stroke-width="1.4" d="M314,-777.5C314,-777.5 190,-777.5 190,-777.5 184,-777.5 178,-771.5 178,-765.5 178,-765.5 178,-753.5 178,-753.5 178,-747.5 184,-741.5 190,-741.5 190,-741.5 314,-741.5 314,-741.5 320,-741.5 326,-747.5 326,-753.5 326,-753.5 326,-765.5 326,-765.5 326,-771.5 320,-777.5 314,-777.5"/>
<text text-anchor="middle" x="252" y="-762.7" font-family="Arial" font-size="11.00" fill="#12283a">Admin opens the Patients</text>
<text text-anchor="middle" x="252" y="-750.7" font-family="Arial" font-size="11.00" fill="#12283a">tab</text>
</g>
<!-- s&#45;&gt;open -->
<g id="edge1" class="edge">
<title>s&#45;&gt;open</title>
<path fill="none" stroke="#44607a" stroke-width="1.1" d="M252,-808.42C252,-801.31 252,-792.92 252,-785.16"/>
<polygon fill="#44607a" stroke="#44607a" stroke-width="1.1" points="254.45,-784.69 252,-777.69 249.55,-784.69 254.45,-784.69"/>
</g>
<!-- load -->
<g id="node3" class="node">
<title>load</title>
<path fill="#fdf0cd" stroke="#c9a63a" stroke-width="1.4" d="M310,-710.5C310,-710.5 194,-710.5 194,-710.5 188,-710.5 182,-704.5 182,-698.5 182,-698.5 182,-686.5 182,-686.5 182,-680.5 188,-674.5 194,-674.5 194,-674.5 310,-674.5 310,-674.5 316,-674.5 322,-680.5 322,-686.5 322,-686.5 322,-698.5 322,-698.5 322,-704.5 316,-710.5 310,-710.5"/>
<text text-anchor="middle" x="252" y="-689.7" font-family="Arial" font-size="11.00" fill="#12283a">GET /api/admin/patients</text>
</g>
<!-- open&#45;&gt;load -->
<g id="edge2" class="edge">
<title>open&#45;&gt;load</title>
<path fill="none" stroke="#44607a" stroke-width="1.1" d="M252,-741.42C252,-734.31 252,-725.92 252,-718.16"/>
<polygon fill="#44607a" stroke="#44607a" stroke-width="1.1" points="254.45,-717.69 252,-710.69 249.55,-717.69 254.45,-717.69"/>
</g>
<!-- auto -->
<g id="node4" class="node">
<title>auto</title>
<path fill="#d7e9f7" stroke="#5b8db8" stroke-width="1.4" d="M240.28,-640.94C240.28,-640.94 98.72,-610.06 98.72,-610.06 92.86,-608.78 92.86,-606.22 98.72,-604.94 98.72,-604.94 240.28,-574.06 240.28,-574.06 246.14,-572.78 257.86,-572.78 263.72,-574.06 263.72,-574.06 405.28,-604.94 405.28,-604.94 411.14,-606.22 411.14,-608.78 405.28,-610.06 405.28,-610.06 263.72,-640.94 263.72,-640.94 257.86,-642.22 246.14,-642.22 240.28,-640.94"/>
<text text-anchor="middle" x="252" y="-610.7" font-family="Arial" font-size="11.00" fill="#12283a">Status = ADMITTED and last</text>
<text text-anchor="middle" x="252" y="-598.7" font-family="Arial" font-size="11.00" fill="#12283a">appointment finished?</text>
</g>
<!-- load&#45;&gt;auto -->
<g id="edge3" class="edge">
<title>load&#45;&gt;auto</title>
<path fill="none" stroke="#44607a" stroke-width="1.1" d="M252,-674.3C252,-667.54 252,-659.45 252,-651.29"/>
<polygon fill="#44607a" stroke="#44607a" stroke-width="1.1" points="254.45,-650.82 252,-643.82 249.55,-650.82 254.45,-650.82"/>
</g>
<!-- dis -->
<g id="node5" class="node">
<title>dis</title>
<path fill="#cfe2f3" stroke="#5b8db8" stroke-width="1.4" d="M253,-526.8C253,-529.26 229.24,-531.25 200,-531.25 170.76,-531.25 147,-529.26 147,-526.8 147,-526.8 147,-486.7 147,-486.7 147,-484.24 170.76,-482.25 200,-482.25 229.24,-482.25 253,-484.24 253,-486.7 253,-486.7 253,-526.8 253,-526.8"/>
<path fill="none" stroke="#5b8db8" stroke-width="1.4" d="M253,-526.8C253,-524.34 229.24,-522.34 200,-522.34 170.76,-522.34 147,-524.34 147,-526.8"/>
<text text-anchor="middle" x="200" y="-509.95" font-family="Arial" font-size="11.00" fill="#12283a">Auto&#45;set status =</text>
<text text-anchor="middle" x="200" y="-497.95" font-family="Arial" font-size="11.00" fill="#12283a">DISCHARGED</text>
</g>
<!-- auto&#45;&gt;dis -->
<g id="edge4" class="edge">
<title>auto&#45;&gt;dis</title>
<path fill="none" stroke="#44607a" stroke-width="1.1" d="M235.4,-574.98C229.13,-563.08 222.02,-549.57 215.82,-537.8"/>
<polygon fill="#44607a" stroke="#44607a" stroke-width="1.1" points="217.92,-536.52 212.49,-531.46 213.58,-538.8 217.92,-536.52"/>
<text text-anchor="middle" x="233" y="-548.9" font-family="Arial" font-size="9.50">Yes</text>
</g>
<!-- list -->
<g id="node6" class="node">
<title>list</title>
<path fill="#e4d8f3" stroke="#8e77b8" stroke-width="1.4" d="M310,-451C310,-451 212,-451 212,-451 206,-451 200,-445 200,-439 200,-439 200,-427 200,-427 200,-421 206,-415 212,-415 212,-415 310,-415 310,-415 316,-415 322,-421 322,-427 322,-427 322,-439 322,-439 322,-445 316,-451 310,-451"/>
<text text-anchor="middle" x="261" y="-436.2" font-family="Arial" font-size="11.00" fill="#12283a">Show list with status</text>
<text text-anchor="middle" x="261" y="-424.2" font-family="Arial" font-size="11.00" fill="#12283a">pills</text>
</g>
<!-- auto&#45;&gt;list -->
<g id="edge6" class="edge">
<title>auto&#45;&gt;list</title>
<path fill="none" stroke="#44607a" stroke-width="1.1" d="M259.13,-572.69C261.5,-559.85 263.83,-545.06 265,-531.5 266.89,-509.58 265.91,-503.98 265,-482 264.68,-474.36 264.08,-466.04 263.44,-458.52"/>
<polygon fill="#44607a" stroke="#44607a" stroke-width="1.1" points="265.86,-458.06 262.79,-451.31 260.98,-458.5 265.86,-458.06"/>
<text text-anchor="middle" x="273.5" y="-504.15" font-family="Arial" font-size="9.50">No</text>
</g>
<!-- dis&#45;&gt;list -->
<g id="edge5" class="edge">
<title>dis&#45;&gt;list</title>
<path fill="none" stroke="#44607a" stroke-width="1.1" d="M220.31,-481.86C227.18,-473.78 234.83,-464.78 241.63,-456.78"/>
<polygon fill="#44607a" stroke="#44607a" stroke-width="1.1" points="243.51,-458.35 246.18,-451.43 239.78,-455.18 243.51,-458.35"/>
</g>
<!-- act -->
<g id="node7" class="node">
<title>act</title>
<path fill="#d7e9f7" stroke="#5b8db8" stroke-width="1.4" d="M249.14,-382.17C249.14,-382.17 155.98,-367.83 155.98,-367.83 150.05,-366.91 150.05,-365.09 155.98,-364.17 155.98,-364.17 249.14,-349.83 249.14,-349.83 255.07,-348.91 266.93,-348.91 272.86,-349.83 272.86,-349.83 366.02,-364.17 366.02,-364.17 371.95,-365.09 371.95,-366.91 366.02,-367.83 366.02,-367.83 272.86,-382.17 272.86,-382.17 266.93,-383.09 255.07,-383.09 249.14,-382.17"/>
<text text-anchor="middle" x="261" y="-363.2" font-family="Arial" font-size="11.00" fill="#12283a">Admit or Discharge?</text>
</g>
<!-- list&#45;&gt;act -->
<g id="edge7" class="edge">
<title>list&#45;&gt;act</title>
<path fill="none" stroke="#44607a" stroke-width="1.1" d="M261,-414.92C261,-407.81 261,-399.42 261,-391.66"/>
<polygon fill="#44607a" stroke="#44607a" stroke-width="1.1" points="263.45,-391.19 261,-384.19 258.55,-391.19 263.45,-391.19"/>
</g>
<!-- chk -->
<g id="node8" class="node">
<title>chk</title>
<path fill="#d7e9f7" stroke="#5b8db8" stroke-width="1.4" d="M130.37,-305.05C130.37,-305.05 11.63,-274.95 11.63,-274.95 5.82,-273.47 5.82,-270.53 11.63,-269.05 11.63,-269.05 130.37,-238.95 130.37,-238.95 136.18,-237.47 147.82,-237.47 153.63,-238.95 153.63,-238.95 272.37,-269.05 272.37,-269.05 278.18,-270.53 278.18,-273.47 272.37,-274.95 272.37,-274.95 153.63,-305.05 153.63,-305.05 147.82,-306.53 136.18,-306.53 130.37,-305.05"/>
<text text-anchor="middle" x="142" y="-275.2" font-family="Arial" font-size="11.00" fill="#12283a">Has an appointment that</text>
<text text-anchor="middle" x="142" y="-263.2" font-family="Arial" font-size="11.00" fill="#12283a">has not finished?</text>
</g>
<!-- act&#45;&gt;chk -->
<g id="edge8" class="edge">
<title>act&#45;&gt;chk</title>
<path fill="none" stroke="#44607a" stroke-width="1.1" d="M242.41,-350.62C226.27,-338.15 202.36,-319.67 181.92,-303.87"/>
<polygon fill="#44607a" stroke="#44607a" stroke-width="1.1" points="183.3,-301.83 176.26,-299.49 180.3,-305.71 183.3,-301.83"/>
<text text-anchor="middle" x="232.5" y="-325.4" font-family="Arial" font-size="9.50">Admit</text>
</g>
<!-- dch -->
<g id="node11" class="node">
<title>dch</title>
<path fill="#cfe2f3" stroke="#5b8db8" stroke-width="1.4" d="M408.5,-217.73C408.5,-219.53 367.94,-221 318,-221 268.06,-221 227.5,-219.53 227.5,-217.73 227.5,-217.73 227.5,-188.27 227.5,-188.27 227.5,-186.47 268.06,-185 318,-185 367.94,-185 408.5,-186.47 408.5,-188.27 408.5,-188.27 408.5,-217.73 408.5,-217.73"/>
<path fill="none" stroke="#5b8db8" stroke-width="1.4" d="M408.5,-217.73C408.5,-215.92 367.94,-214.45 318,-214.45 268.06,-214.45 227.5,-215.92 227.5,-217.73"/>
<text text-anchor="middle" x="318" y="-200.2" font-family="Arial" font-size="11.00" fill="#12283a">PATCH status = DISCHARGED</text>
</g>
<!-- act&#45;&gt;dch -->
<g id="edge13" class="edge">
<title>act&#45;&gt;dch</title>
<path fill="none" stroke="#44607a" stroke-width="1.1" d="M272.67,-349.32C280.36,-338.29 290.06,-322.88 296,-308 306.46,-281.78 312.27,-249.76 315.26,-228.24"/>
<polygon fill="#44607a" stroke="#44607a" stroke-width="1.1" points="317.72,-228.35 316.2,-221.09 312.86,-227.71 317.72,-228.35"/>
<text text-anchor="middle" x="310.5" y="-325.4" font-family="Arial" font-size="9.50">Discharge</text>
</g>
<!-- err -->
<g id="node9" class="node">
<title>err</title>
<path fill="#f8ccc8" stroke="#c96a61" stroke-width="1.4" d="M446.5,-844.5C446.5,-844.5 321.5,-844.5 321.5,-844.5 315.5,-844.5 309.5,-838.5 309.5,-832.5 309.5,-832.5 309.5,-820.5 309.5,-820.5 309.5,-814.5 315.5,-808.5 321.5,-808.5 321.5,-808.5 446.5,-808.5 446.5,-808.5 452.5,-808.5 458.5,-814.5 458.5,-820.5 458.5,-820.5 458.5,-832.5 458.5,-832.5 458.5,-838.5 452.5,-844.5 446.5,-844.5"/>
<text text-anchor="middle" x="384" y="-829.7" font-family="Arial" font-size="11.00" fill="#12283a">400 &#45; can only admit</text>
<text text-anchor="middle" x="384" y="-817.7" font-family="Arial" font-size="11.00" fill="#12283a">against a live appointment</text>
</g>
<!-- chk&#45;&gt;err -->
<g id="edge9" class="edge">
<title>chk&#45;&gt;err</title>
<path fill="none" stroke="#c07a72" stroke-width="1.1" d="M224.17,-287.18C288.22,-300.08 369.62,-321.19 390,-348 430.1,-400.76 438.18,-577.74 430,-643.5 422.81,-701.32 403.22,-767.15 392.07,-801.6"/>
<polygon fill="#c07a72" stroke="#c07a72" stroke-width="1.1" points="389.67,-801.04 389.82,-808.46 394.33,-802.57 389.67,-801.04"/>
<text text-anchor="middle" x="438.5" y="-548.9" font-family="Arial" font-size="9.50">No</text>
</g>
<!-- adm -->
<g id="node10" class="node">
<title>adm</title>
<path fill="#cfe2f3" stroke="#5b8db8" stroke-width="1.4" d="M268,-166.73C268,-168.53 231.69,-170 187,-170 142.31,-170 106,-168.53 106,-166.73 106,-166.73 106,-137.27 106,-137.27 106,-135.47 142.31,-134 187,-134 231.69,-134 268,-135.47 268,-137.27 268,-137.27 268,-166.73 268,-166.73"/>
<path fill="none" stroke="#5b8db8" stroke-width="1.4" d="M268,-166.73C268,-164.92 231.69,-163.45 187,-163.45 142.31,-163.45 106,-164.92 106,-166.73"/>
<text text-anchor="middle" x="187" y="-149.2" font-family="Arial" font-size="11.00" fill="#12283a">PATCH status = ADMITTED</text>
</g>
<!-- chk&#45;&gt;adm -->
<g id="edge11" class="edge">
<title>chk&#45;&gt;adm</title>
<path fill="none" stroke="#44607a" stroke-width="1.1" d="M154.18,-239.07C161.67,-219.42 171.11,-194.67 177.94,-176.76"/>
<polygon fill="#44607a" stroke="#44607a" stroke-width="1.1" points="180.31,-177.43 180.51,-170.01 175.73,-175.68 180.31,-177.43"/>
<text text-anchor="middle" x="182" y="-200.4" font-family="Arial" font-size="9.50">Yes</text>
</g>
<!-- err&#45;&gt;list -->
<g id="edge10" class="edge">
<title>err&#45;&gt;list</title>
<path fill="none" stroke="#c07a72" stroke-width="1.1" d="M399.55,-808.38C435.81,-766.29 519.54,-655.11 474,-571.5 441.56,-511.94 371.01,-474.27 319.97,-453.71"/>
<polygon fill="#c07a72" stroke="#c07a72" stroke-width="1.1" points="320.63,-451.34 313.22,-451.04 318.83,-455.89 320.63,-451.34"/>
</g>
<!-- ok -->
<g id="node12" class="node">
<title>ok</title>
<path fill="#fbdade" stroke="#cf8b93" stroke-width="1.4" d="M300.5,-103C300.5,-103 207.5,-103 207.5,-103 201.5,-103 195.5,-97 195.5,-91 195.5,-91 195.5,-79 195.5,-79 195.5,-73 201.5,-67 207.5,-67 207.5,-67 300.5,-67 300.5,-67 306.5,-67 312.5,-73 312.5,-79 312.5,-79 312.5,-91 312.5,-91 312.5,-97 306.5,-103 300.5,-103"/>
<text text-anchor="middle" x="254" y="-88.2" font-family="Arial" font-size="11.00" fill="#12283a">Success popup, list</text>
<text text-anchor="middle" x="254" y="-76.2" font-family="Arial" font-size="11.00" fill="#12283a">reloaded</text>
</g>
<!-- adm&#45;&gt;ok -->
<g id="edge12" class="edge">
<title>adm&#45;&gt;ok</title>
<path fill="none" stroke="#44607a" stroke-width="1.1" d="M204.6,-133.92C212.69,-126.07 222.4,-116.66 231.05,-108.26"/>
<polygon fill="#44607a" stroke="#44607a" stroke-width="1.1" points="232.96,-109.82 236.28,-103.19 229.55,-106.31 232.96,-109.82"/>
</g>
<!-- dch&#45;&gt;ok -->
<g id="edge14" class="edge">
<title>dch&#45;&gt;ok</title>
<path fill="none" stroke="#44607a" stroke-width="1.1" d="M308.56,-184.88C297.54,-164.92 279.28,-131.82 266.95,-109.47"/>
<polygon fill="#44607a" stroke="#44607a" stroke-width="1.1" points="269.01,-108.13 263.48,-103.19 264.72,-110.5 269.01,-108.13"/>
</g>
<!-- e -->
<g id="node13" class="node">
<title>e</title>
<ellipse fill="#d5ecd7" stroke="#5b9c62" stroke-width="1.4" cx="254" cy="-18" rx="29.53" ry="18"/>
<text text-anchor="middle" x="254" y="-15.2" font-family="Arial" font-size="11.00" fill="#12283a">End</text>
</g>
<!-- ok&#45;&gt;e -->
<g id="edge15" class="edge">
<title>ok&#45;&gt;e</title>
<path fill="none" stroke="#44607a" stroke-width="1.1" d="M254,-66.92C254,-59.81 254,-51.42 254,-43.66"/>
<polygon fill="#44607a" stroke="#44607a" stroke-width="1.1" points="256.45,-43.19 254,-36.19 251.55,-43.19 256.45,-43.19"/>
</g>
</g>
</svg>
